{"asset":{"version":"2.0","generator":"e-verse custom generator","copyright":"free tool created by e-verse"},"scenes":[{"nodes":[0]}],"nodes":[{"name":"rootNode","children":[1,2,3,4,5,6,7,8,9,10,11,12,13,14,15,16,17,18,19],"rotation":[0.7071,0.0,0.0,-0.7071],"translation":[0.0,0.0,0.0],"scale":[0.3048,0.3048,0.3048]},{"extras":{"elementId":0}},{"extras":{"elementId":0}},{"extras":{"elementId":0}},{"mesh":0,"extras":{"elementId":0}},{"mesh":1,"extras":{"elementId":0}},{"extras":{"elementId":0}},{"extras":{"elementId":0}},{"extras":{"elementId":0}},{"extras":{"elementId":0}},{"extras":{"elementId":0}},{"mesh":2,"extras":{"elementId":0}},{"mesh":3,"extras":{"elementId":0}},{"mesh":4,"extras":{"elementId":0}},{"mesh":5,"extras":{"elementId":0}},{"extras":{"elementId":0}},{"extras":{"elementId":0}},{"mesh":6,"extras":{"elementId":0}},{"mesh":7,"extras":{"elementId":0}},{"mesh":8,"extras":{"elementId":0}}],"meshes":[{"primitives":[{"attributes":{"POSITION":0,"NORMAL":1},"indices":2,"material":0,"mode":4}],"name":"连接的实心几何图形"},{"primitives":[{"attributes":{"POSITION":3,"NORMAL":4},"indices":5,"material":1,"mode":4}],"name":"连接的实心几何图形"},{"primitives":[{"attributes":{"POSITION":6,"NORMAL":7},"indices":8,"material":1,"mode":4}],"name":"连接的实心几何图形"},{"primitives":[{"attributes":{"POSITION":9,"NORMAL":10},"indices":11,"material":0,"mode":4}],"name":"连接的实心几何图形"},{"primitives":[{"attributes":{"POSITION":12,"NORMAL":13},"indices":14,"material":2,"mode":4}],"name":"连接的实心几何图形"},{"primitives":[{"attributes":{"POSITION":15,"NORMAL":16},"indices":17,"material":0,"mode":4}],"name":"连接的实心几何图形"},{"primitives":[{"attributes":{"POSITION":18,"NORMAL":19},"indices":20,"material":3,"mode":4}],"name":"连接的实心几何图形"},{"primitives":[{"attributes":{"POSITION":21,"NORMAL":22},"indices":23,"material":3,"mode":4}],"name":"拉伸"},{"primitives":[{"attributes":{"POSITION":24,"NORMAL":25},"indices":26,"material":4,"mode":4}],"name":"旋转"}],"buffers":[{"uri":"电水壶.bin","byteLength":196728}],"bufferViews":[{"buffer":0,"byteOffset":0,"byteLength":30672,"target":34962,"name":""},{"buffer":0,"byteOffset":30672,"byteLength":30672,"target":34962,"name":""},{"buffer":0,"byteOffset":61344,"byteLength":10224,"target":34963,"name":""},{"buffer":0,"byteOffset":71568,"byteLength":11340,"target":34962,"name":""},{"buffer":0,"byteOffset":82908,"byteLength":11340,"target":34962,"name":""},{"buffer":0,"byteOffset":94248,"byteLength":3780,"target":34963,"name":""},{"buffer":0,"byteOffset":98028,"byteLength":4248,"target":34962,"name":""},{"buffer":0,"byteOffset":102276,"byteLength":4248,"target":34962,"name":""},{"buffer":0,"byteOffset":106524,"byteLength":1416,"target":34963,"name":""},{"buffer":0,"byteOffset":107940,"byteLength":8352,"target":34962,"name":""},{"buffer":0,"byteOffset":116292,"byteLength":8352,"target":34962,"name":""},{"buffer":0,"byteOffset":124644,"byteLength":2784,"target":34963,"name":""},{"buffer":0,"byteOffset":127428,"byteLength":12492,"target":34962,"name":""},{"buffer":0,"byteOffset":139920,"byteLength":12492,"target":34962,"name":""},{"buffer":0,"byteOffset":152412,"byteLength":4164,"target":34963,"name":""},{"buffer":0,"byteOffset":156576,"byteLength":3024,"target":34962,"name":""},{"buffer":0,"byteOffset":159600,"byteLength":3024,"target":34962,"name":""},{"buffer":0,"byteOffset":162624,"byteLength":1008,"target":34963,"name":""},{"buffer":0,"byteOffset":163632,"byteLength":2016,"target":34962,"name":""},{"buffer":0,"byteOffset":165648,"byteLength":2016,"target":34962,"name":""},{"buffer":0,"byteOffset":167664,"byteLength":672,"target":34963,"name":""},{"buffer":0,"byteOffset":168336,"byteLength":3312,"target":34962,"name":""},{"buffer":0,"byteOffset":171648,"byteLength":3312,"target":34962,"name":""},{"buffer":0,"byteOffset":174960,"byteLength":1104,"target":34963,"name":""},{"buffer":0,"byteOffset":176064,"byteLength":8856,"target":34962,"name":""},{"buffer":0,"byteOffset":184920,"byteLength":8856,"target":34962,"name":""},{"buffer":0,"byteOffset":193776,"byteLength":2952,"target":34963,"name":""}],"accessors":[{"bufferView":0,"byteOffset":0,"componentType":5126,"count":2556,"type":"VEC3","max":[0.279404342,0.280968726,0.7545932],"min":[-0.279404342,-0.283026069,-2.678413E-15],"name":"POSITION"},{"bufferView":1,"byteOffset":0,"componentType":5126,"count":2556,"type":"VEC3","max":[0.9999945,0.9999945,1.0],"min":[-0.9999945,-0.9999945,-1.0],"name":"NORMALS"},{"bufferView":2,"byteOffset":0,"componentType":5125,"count":2556,"type":"SCALAR","max":[2555.0],"min":[0.0],"name":"FACE"},{"bufferView":3,"byteOffset":0,"componentType":5126,"count":945,"type":"VEC3","max":[0.279269576,0.2789024,0.1148294],"min":[-0.279269576,-0.2789024,0.0984251946],"name":"POSITION"},{"bufferView":4,"byteOffset":0,"componentType":5126,"count":945,"type":"VEC3","max":[0.997254252,0.997254252,1.0],"min":[-0.997254252,-0.997254252,-1.0],"name":"NORMALS"},{"bufferView":5,"byteOffset":0,"componentType":5125,"count":945,"type":"SCALAR","max":[944.0],"min":[0.0],"name":"FACE"},{"bufferView":6,"byteOffset":0,"componentType":5126,"count":354,"type":"VEC3","max":[0.07845128,-0.220586032,0.62402],"min":[-0.07845128,-0.280436784,0.200021267],"name":"POSITION"},{"bufferView":7,"byteOffset":0,"componentType":5126,"count":354,"type":"VEC3","max":[1.0,0.992546141,0.9854675],"min":[-1.0,-0.992546141,-0.9854675],"name":"NORMALS"},{"bufferView":8,"byteOffset":0,"componentType":5125,"count":354,"type":"SCALAR","max":[353.0],"min":[0.0],"name":"FACE"},{"bufferView":9,"byteOffset":0,"componentType":5126,"count":696,"type":"VEC3","max":[-0.112969123,0.107612163,0.7338213],"min":[-0.3215964,-0.08302971,0.5245532],"name":"POSITION"},{"bufferView":10,"byteOffset":0,"componentType":5126,"count":696,"type":"VEC3","max":[0.8969194,0.964245856,0.898794055],"min":[-0.89671,-0.964245856,-0.898794055],"name":"NORMALS"},{"bufferView":11,"byteOffset":0,"componentType":5125,"count":696,"type":"SCALAR","max":[695.0],"min":[0.0],"name":"FACE"},{"bufferView":12,"byteOffset":0,"componentType":5126,"count":1041,"type":"VEC3","max":[0.4291193,0.0348386876,0.6967459],"min":[0.175910667,-0.03649588,0.09365142],"name":"POSITION"},{"bufferView":13,"byteOffset":0,"componentType":5126,"count":1041,"type":"VEC3","max":[0.9886198,1.0,0.999884546],"min":[-0.999884546,-1.0,-0.999884546],"name":"NORMALS"},{"bufferView":14,"byteOffset":0,"componentType":5125,"count":1041,"type":"SCALAR","max":[1040.0],"min":[0.0],"name":"FACE"},{"bufferView":15,"byteOffset":0,"componentType":5126,"count":252,"type":"VEC3","max":[0.187207609,0.182513922,0.8176451],"min":[-0.187207609,-0.182513922,0.7545932],"name":"POSITION"},{"bufferView":16,"byteOffset":0,"componentType":5126,"count":252,"type":"VEC3","max":[0.9429599,0.9429599,0.9999379],"min":[-0.9429599,-0.9429599,-1.0],"name":"NORMALS"},{"bufferView":17,"byteOffset":0,"componentType":5125,"count":252,"type":"SCALAR","max":[251.0],"min":[0.0],"name":"FACE"},{"bufferView":18,"byteOffset":0,"componentType":5126,"count":168,"type":"VEC3","max":[0.34422195,0.019133674,0.689584434],"min":[0.274092019,-0.01194281,0.6491618],"name":"POSITION"},{"bufferView":19,"byteOffset":0,"componentType":5126,"count":168,"type":"VEC3","max":[0.983357847,0.9761734,0.9798484],"min":[-0.813786864,-0.9761734,-0.920504868],"name":"NORMALS"},{"bufferView":20,"byteOffset":0,"componentType":5125,"count":168,"type":"SCALAR","max":[167.0],"min":[0.0],"name":"FACE"},{"bufferView":21,"byteOffset":0,"componentType":5126,"count":276,"type":"VEC3","max":[-0.03167907,0.0328084,0.7885623],"min":[-0.0975545943,-0.0328084,0.7777186],"name":"POSITION"},{"bufferView":22,"byteOffset":0,"componentType":5126,"count":276,"type":"VEC3","max":[0.999390841,1.0,0.999390841],"min":[-0.999390841,-1.0,-0.999390841],"name":"NORMALS"},{"bufferView":23,"byteOffset":0,"componentType":5125,"count":276,"type":"SCALAR","max":[275.0],"min":[0.0],"name":"FACE"},{"bufferView":24,"byteOffset":0,"componentType":5126,"count":738,"type":"VEC3","max":[0.286598444,0.282244354,-2.66453526E-15],"min":[-0.286598444,-0.282244354,-0.0426602252],"name":"POSITION"},{"bufferView":25,"byteOffset":0,"componentType":5126,"count":738,"type":"VEC3","max":[0.9874571,0.9874571,1.0],"min":[-0.9874571,-0.9874571,-1.0],"name":"NORMALS"},{"bufferView":26,"byteOffset":0,"componentType":5125,"count":738,"type":"SCALAR","max":[737.0],"min":[0.0],"name":"FACE"}],"materials":[{"alphaMode":"OPAQUE","name":"面","pbrMetallicRoughness":{"baseColorFactor":[0.8509804,0.8509804,0.8509804,1.0],"metallicFactor":0.0,"roughnessFactor":1.0},"doubleSided":false},{"alphaMode":"OPAQUE","name":"框架","pbrMetallicRoughness":{"baseColorFactor":[0.0,0.2509804,0.5019608,1.0],"metallicFactor":0.0,"roughnessFactor":1.0},"doubleSided":false},{"alphaMode":"OPAQUE","name":"球形捏手","pbrMetallicRoughness":{"baseColorFactor":[0.8509804,0.8509804,0.8509804,1.0],"metallicFactor":0.0,"roughnessFactor":1.0},"doubleSided":false},{"alphaMode":"OPAQUE","name":"按钮","pbrMetallicRoughness":{"baseColorFactor":[0.7490196,0.0,0.0,1.0],"metallicFactor":0.0,"roughnessFactor":1.0},"doubleSided":false},{"alphaMode":"OPAQUE","name":"支撑","pbrMetallicRoughness":{"baseColorFactor":[0.8509804,0.8509804,0.8509804,1.0],"metallicFactor":0.0,"roughnessFactor":1.0},"doubleSided":false}]}